PathFileType	4	(X/Y/Z)	Patient4_TMGait_0pt2_03_right_10.trc.trc
DataRate	CameraRate	NumFrames	NumMarkers	Units	OrigDataRate	OrigDataStartFrame	OrigNumFrames
45.751633986928	45.751633986928	4	33	mm	45.751633986928	1	       141
Frame#	Time	Sacral			L.Shoulder			Chest			R.Shoulder			Neck			R.ASIS			L.ASIS			R.Thigh.Superior			R.Thigh.Lateral			R.Thigh.Inferior			R.Patella			L.Thigh.Superior			L.Thigh.Lateral			L.Thigh.Inferior			L.Patella			L.Shank.Superior			L.Shank.Lateral			L.Shank.Inferior			R.Shank.Superior			R.Shank.Lateral			R.Shank.Inferior			R.Heel			R.Midfoot.Superior			R.Midfoot.Lateral			R.Toe			L.Heel			L.Midfoot.Lateral			L.Midfoot.Superior			L.Toe			L.Elbow			L.Wrist			R.Elbow			R.Wrist			
		X1	Y1	Z1	X2	Y2	Z2	X3	Y3	Z3	X4	Y4	Z4	X5	Y5	Z5	X6	Y6	Z6	X7	Y7	Z7	X8	Y8	Z8	X9	Y9	Z9	X10	Y10	Z10	X11	Y11	Z11	X12	Y12	Z12	X13	Y13	Z13	X14	Y14	Z14	X15	Y15	Z15	X16	Y16	Z16	X17	Y17	Z17	X18	Y18	Z18	X19	Y19	Z19	X20	Y20	Z20	X21	Y21	Z21	X22	Y22	Z22	X23	Y23	Z23	X24	Y24	Z24	X25	Y25	Z25	X26	Y26	Z26	X27	Y27	Z27	X28	Y28	Z28	X29	Y29	Z29	X30	Y30	Z30	X31	Y31	Z31	X32	Y32	Z32	X33	Y33	Z33	

1	21.340000000000	754.069691396977	998.352940984232	413.974923580280	948.789648630020	1426.391224302922	241.812869533004	1042.582361427623	1350.386872377817	404.595349785096	957.526541706557	1420.215202048512	577.647383921680	917.864895285466	1485.153509739946	401.515502372262	980.498504483548	934.005680146671	536.304243432835	971.958212632890	949.090338848134	262.654020101988	1026.285271022676	730.649208596852	521.081246319741	953.457831771125	627.455649910849	598.977134839802	1031.542513433298	563.803425670212	526.569650069001	1027.229173355204	459.297992496414	555.901548375948	1035.481151996662	749.638120733288	302.099757054674	961.404088843957	612.811661801887	240.482278381914	1060.372514141326	555.410614414838	311.581810763026	1067.658566572565	480.265741022313	320.314331883463	1030.484392493766	404.677165825069	313.661579623730	930.954315066748	300.353338898898	260.062959100277	962.759573116139	185.397164955345	333.059046113707	952.553877259994	391.265575634124	572.777357180096	839.412500000068	354.163487015263	648.011055576742	820.215802049668	242.246869349428	605.362866273622	614.421332856282	175.731987952070	610.300334452383	787.971543782794	118.101313887970	622.621884133065	684.466987447502	112.847561309762	669.391569477083	856.596873035973	32.668033421651	627.164906316021	818.238128358668	38.641742713877	369.190403256688	893.209697600352	35.614434700544	289.750444645478	977.097893438221	95.410806643002	319.004326340971	1105.477357386565	41.545600858600	290.557318028356	965.207152835102	1075.405671043731	113.397108636123	1030.727855733285	821.567312078634	121.286885430280	966.237066877944	1058.772169685574	679.088793693244	1092.030689641523	829.716386838427	694.859931754488	
2	21.361857142857	752.596833734166	996.167414312986	409.686828609355	951.447683054419	1424.863642073603	240.730558218427	1041.964282098770	1348.219024469928	404.926317185642	953.784733652543	1417.442961983188	576.722956697107	918.038044110425	1483.363077563523	400.202117928871	978.440862330778	932.821971503447	534.301496387787	972.163694236354	947.463758541370	260.360380638651	1030.961975735347	733.969522840283	517.763212602947	962.515385796147	628.480993413249	595.881898150242	1042.890391255559	567.510413561741	523.384484165746	1041.155309036979	461.548597818975	552.970280104185	1036.005743396194	748.054564449390	299.237534331885	961.585441841458	611.186055071204	238.107256986708	1060.385569839853	553.943673823769	309.678650851917	1067.818577470703	478.883425222579	318.844972642286	1029.918348571418	402.987355991500	312.583576281148	929.563081834127	299.361960562466	258.993813881534	959.689290423186	184.468249065588	332.658084731108	965.001584729121	393.577972737989	569.731213906537	850.313034370986	359.906308636295	644.393561237960	828.540029773342	248.431892852122	602.450708240331	622.256714413220	190.885439820738	605.353957012401	792.255817116319	124.714891712895	620.479723763728	688.034842180109	124.823055949688	665.617330903351	855.352376343635	30.998883320640	626.843724816666	813.926035043416	38.664212743297	369.075647831648	888.903118764421	35.568759019410	289.604607546876	972.822916078903	95.277007095111	318.951610944163	1101.198732676625	41.361036312779	290.488529463892	979.978629211530	1076.182025192935	110.688660070836	1060.556665840367	828.066117454815	119.975260338165	942.118597608360	1057.543124689180	675.974172918939	1044.506515937951	821.043344260339	690.643191612641	
3	21.383714285714	751.158589048089	994.366462666834	405.355758988811	954.265552052848	1423.669685306791	239.765865856789	1041.300390264684	1346.459148752391	405.475218982281	949.778320500064	1415.176551229784	575.823520881010	918.163455217629	1481.916936056529	398.924863135146	976.293403630335	932.005576862794	532.415355468810	972.510888868652	946.189016727930	258.203909593846	1035.455825991595	737.727343032910	514.599097059666	971.393452049131	629.985137904225	592.965423516852	1054.046287268513	571.697831578764	520.404847767374	1054.940618627731	464.336249505109	550.278358096057	1036.340052011640	746.571086934656	296.530825725439	961.408614950320	609.774270585437	235.831809324033	1059.903934161747	552.556564879611	307.887511299413	1067.383440751839	477.626713649261	317.491105093149	1028.812977180007	401.466838836995	311.575184041030	927.757667536953	298.451895448082	257.950451045292	956.322274799504	183.633934803506	332.266070804406	977.425852920783	396.280248089494	566.861776891062	861.177975715248	365.688641139267	640.854327946926	837.195788906863	254.498218816732	599.586117546880	630.377804066903	204.751229195111	600.414808685215	797.403402559612	131.186728915479	618.295608034336	692.415540975275	135.951639370343	661.870725721772	855.744293147907	29.717449796293	626.491762253062	809.429391140659	38.687122730946	368.950313752623	884.420594170159	35.523601605308	289.455146643638	968.368400496254	95.154897313262	318.882376122762	1096.741976332875	41.189401769406	290.419531516361	995.247666887521	1077.642118522600	107.937504408591	1091.609644802773	836.001282056100	118.800400468039	917.018790184951	1057.433558991664	672.678168913834	995.981510645494	813.960788193430	686.009003509492	
4	21.405571428571	749.826230772688	993.176526227374	401.136392889540	957.215599627787	1422.990670462746	239.014423788092	1040.597742612694	1345.337897856027	406.316292859485	945.559894080474	1413.712424627644	574.991934013265	918.224067602970	1481.007890308097	397.751808427459	974.077606999353	931.742333029407	530.792347867528	973.045151346734	945.447931450198	256.358468108772	1039.472055491191	741.916238080136	511.811343172434	979.595218245158	632.076706302175	590.443576981259	1064.393934319196	576.345612431970	517.852788084354	1067.894333000312	467.750830886728	548.039032148754	1036.375138020122	745.281496621833	294.180561206038	960.715668025510	608.721890649014	233.792577443996	1058.715547111244	551.335415971975	306.336319548480	1066.093092434155	476.595088506845	316.359530779460	1026.967873211424	400.246801348493	310.706759020666	925.416835499548	297.693277815939	256.986695806756	952.648930591723	182.965648927232	331.904418352114	989.299408070656	399.397473887947	564.389084182052	871.620829940303	371.187473015807	637.648843302845	846.098298077151	260.071736575448	596.980344014421	638.825663168907	216.104377397764	595.805096234555	803.759582612013	137.138113580483	616.273160563491	697.999218787125	145.355217123164	658.436933233039	858.616205079461	28.996355624869	626.249529772457	804.833148138808	38.709147412727	368.816358281796	879.849213860083	35.480578256419	289.307163291676	963.819030145699	95.053452790496	318.794241424544	1092.192624763048	41.042352087160	290.353749073231	1010.657403399420	1080.032302999585	105.254032190658	1123.203635700489	845.774475266729	117.886644832002	891.553431530617	1058.917330607445	669.229086694432	947.983561330645	809.382323343494	680.940983586156	
